<svg width="164" height="22" viewBox="0 0 164 22" fill="none" xmlns="http://www.w3.org/2000/svg">
<path d="M4.89396 15.0282C5.01946 15.9294 5.266 16.6031 5.63356 17.0493C6.30593 17.8613 7.45792 18.2673 9.08953 18.2673C10.0667 18.2673 10.8601 18.1603 11.4697 17.9461C12.6262 17.5356 13.2044 16.7727 13.2044 15.6573C13.2044 15.0059 12.9176 14.5017 12.3438 14.1448C11.77 13.7968 10.8691 13.4889 9.64088 13.2212L7.54309 12.7528C5.48116 12.2888 4.05574 11.7846 3.26682 11.2403C1.93105 10.3301 1.26317 8.90685 1.26317 6.97051C1.26317 5.20371 1.90864 3.73584 3.19959 2.56689C4.49053 1.39795 6.38661 0.813477 8.88782 0.813477C10.9766 0.813477 12.7562 1.36672 14.2264 2.4732C15.7056 3.57076 16.4811 5.16802 16.5528 7.26498H12.5724C12.5007 6.07819 11.9807 5.23494 11.0125 4.73524C10.367 4.40508 9.56468 4.24 8.60543 4.24C7.5386 4.24 6.68694 4.45416 6.05043 4.88247C5.41392 5.31079 5.09567 5.90865 5.09567 6.67604C5.09567 7.38098 5.40944 7.90745 6.03698 8.25546C6.4404 8.48746 7.30103 8.75962 8.61888 9.07193L12.0345 9.88841C13.5316 10.2453 14.6612 10.7227 15.4232 11.3206C16.6066 12.2486 17.1983 13.5916 17.1983 15.3494C17.1983 17.1519 16.5035 18.651 15.114 19.8467C13.7334 21.0335 11.779 21.6269 9.2509 21.6269C6.66901 21.6269 4.63846 21.0425 3.15925 19.8735C1.68003 18.6957 0.94043 17.0805 0.94043 15.0282H4.89396Z" fill="#181A21"/>
<path d="M24.6944 21.1183H20.8619V1.38903H24.6944V21.1183Z" fill="#181A21"/>
<path d="M33.2125 4.78878H29.3262V1.26856H33.2125V4.78878ZM29.3262 6.52881H33.2125V21.1183H29.3262V6.52881Z" fill="#181A21"/>
<path d="M46.5179 11.7623C46.4461 11.218 46.2624 10.7272 45.9665 10.29C45.5362 9.70102 44.8683 9.40656 43.9629 9.40656C42.6719 9.40656 41.7889 10.0446 41.3137 11.3206C41.0627 11.9988 40.9372 12.9 40.9372 14.0243C40.9372 15.0951 41.0627 15.9562 41.3137 16.6076C41.7709 17.8212 42.6316 18.428 43.8956 18.428C44.7921 18.428 45.4286 18.187 45.8051 17.7052C46.1817 17.2233 46.4103 16.5987 46.491 15.8313H50.4042C50.3145 16.9913 49.8932 18.0889 49.1401 19.124C47.9388 20.7926 46.1593 21.6269 43.8015 21.6269C41.4437 21.6269 39.709 20.9309 38.5974 19.5389C37.4857 18.1469 36.9299 16.3399 36.9299 14.118C36.9299 11.6106 37.544 9.66087 38.7722 8.26884C40.0004 6.87682 41.6947 6.18081 43.8553 6.18081C45.6931 6.18081 47.1947 6.59127 48.3601 7.41221C49.5346 8.23315 50.2293 9.68318 50.4445 11.7623H46.5179Z" fill="#181A21"/>
<path d="M53.8795 1.45595H57.6448V12.0835L62.4186 6.59574H67.1655L62.042 12.1772L67.3672 21.1183H62.7413L59.2315 14.881L57.6448 16.5273V21.1183H53.8795V1.45595Z" fill="#181A21"/>
<path d="M69.5247 11.4143C69.5247 7.96991 70.4526 5.31525 72.3083 3.45029C73.922 1.82626 75.975 1.01425 78.4672 1.01425C81.8021 1.01425 84.2406 2.10288 85.7826 4.28016C86.6342 5.50264 87.0914 6.72958 87.1542 7.96099H83.0124C82.7435 7.01513 82.3983 6.30127 81.977 5.81941C81.2239 4.96278 80.1078 4.53447 78.6286 4.53447C77.1225 4.53447 75.9346 5.14125 75.065 6.35481C74.1954 7.55945 73.7606 9.26825 73.7606 11.4812C73.7606 13.6942 74.2178 15.3539 75.1322 16.4604C76.0556 17.5579 77.2256 18.1067 78.642 18.1067C80.0943 18.1067 81.2015 17.6338 81.9635 16.6879C82.3849 16.1793 82.7345 15.4164 83.0124 14.3991H87.1139C86.7553 16.5496 85.8363 18.2986 84.3571 19.646C82.8869 20.9934 80.9998 21.6671 78.6958 21.6671C75.845 21.6671 73.6037 20.7569 71.9721 18.9366C70.3405 17.1073 69.5247 14.5999 69.5247 11.4143Z" fill="#181A21"/>
<path d="M98.8862 14.0243C98.6442 14.176 98.3976 14.301 98.1466 14.3991C97.9046 14.4883 97.5684 14.5731 97.1381 14.6534L96.2774 14.814C95.4706 14.9568 94.8923 15.1308 94.5427 15.336C93.951 15.6841 93.6552 16.2239 93.6552 16.9556C93.6552 17.607 93.8345 18.0799 94.1931 18.3744C94.5606 18.66 95.0044 18.8027 95.5244 18.8027C96.3491 18.8027 97.1067 18.5618 97.797 18.0799C98.4962 17.5981 98.8593 16.7192 98.8862 15.4431V14.0243ZM96.5598 12.2441C97.268 12.1549 97.7746 12.0434 98.0794 11.9095C98.6262 11.6775 98.8997 11.3161 98.8997 10.8254C98.8997 10.2275 98.689 9.81703 98.2676 9.59394C97.8552 9.36194 97.2456 9.24594 96.4388 9.24594C95.5333 9.24594 94.8923 9.46902 94.5158 9.91518C94.2469 10.2453 94.0676 10.6915 93.9779 11.2537H90.2799C90.3606 9.97764 90.7192 8.92916 91.3557 8.10823C92.3687 6.82328 94.1079 6.18081 96.5733 6.18081C98.178 6.18081 99.6034 6.49758 100.85 7.13113C102.096 7.76468 102.719 8.96039 102.719 10.7183V17.4107C102.719 17.8747 102.728 18.4369 102.746 19.0972C102.773 19.5969 102.849 19.936 102.974 20.1144C103.1 20.2929 103.288 20.4401 103.539 20.5561V21.1183H99.3703C99.2538 20.8238 99.1731 20.5472 99.1283 20.2884C99.0834 20.0297 99.0476 19.7352 99.0207 19.405C98.4918 19.9761 97.8821 20.4625 97.1918 20.864C96.3671 21.3369 95.4347 21.5734 94.3948 21.5734C93.068 21.5734 91.9698 21.1986 91.1002 20.4491C90.2396 19.6906 89.8092 18.6198 89.8092 17.2367C89.8092 15.4431 90.504 14.1448 91.8936 13.3417C92.6556 12.9045 93.7762 12.5922 95.2554 12.4048L96.5598 12.2441Z" fill="#181A21"/>
<path d="M115.715 11.7623C115.643 11.218 115.459 10.7272 115.163 10.29C114.733 9.70102 114.065 9.40656 113.16 9.40656C111.869 9.40656 110.986 10.0446 110.511 11.3206C110.26 11.9988 110.134 12.9 110.134 14.0243C110.134 15.0951 110.26 15.9562 110.511 16.6076C110.968 17.8212 111.828 18.428 113.093 18.428C113.989 18.428 114.626 18.187 115.002 17.7052C115.379 17.2233 115.607 16.5987 115.688 15.8313H119.601C119.511 16.9913 119.09 18.0889 118.337 19.124C117.136 20.7926 115.356 21.6269 112.998 21.6269C110.641 21.6269 108.906 20.9309 107.794 19.5389C106.683 18.1469 106.127 16.3399 106.127 14.118C106.127 11.6106 106.741 9.66087 107.969 8.26884C109.197 6.87682 110.892 6.18081 113.052 6.18081C114.89 6.18081 116.392 6.59127 117.557 7.41221C118.731 8.23315 119.426 9.68318 119.641 11.7623H115.715Z" fill="#181A21"/>
<path d="M121.611 9.37979V6.66266H123.655V2.59366H127.447V6.66266H129.827V9.37979H127.447V17.0895C127.447 17.6873 127.523 18.0621 127.675 18.2138C127.828 18.3566 128.294 18.428 129.074 18.428C129.19 18.428 129.312 18.428 129.437 18.428C129.572 18.419 129.701 18.4101 129.827 18.4012V21.2522L128.012 21.3191C126.201 21.3815 124.964 21.0692 124.3 20.3821C123.87 19.9449 123.655 19.2712 123.655 18.361V9.37979H121.611Z" fill="#181A21"/>
<path d="M136.933 6.52881V15.3227C136.933 16.1525 137.032 16.7772 137.229 17.1965C137.579 17.9372 138.264 18.3075 139.286 18.3075C140.595 18.3075 141.492 17.781 141.976 16.7281C142.227 16.157 142.352 15.403 142.352 14.466V6.52881H146.239V21.1183H142.514V19.057C142.478 19.1017 142.388 19.2355 142.245 19.4586C142.101 19.6817 141.931 19.878 141.734 20.0475C141.133 20.5829 140.55 20.9488 139.986 21.1451C139.43 21.3414 138.775 21.4395 138.022 21.4395C135.853 21.4395 134.392 20.6632 133.639 19.1106C133.217 18.2539 133.007 16.9913 133.007 15.3227V6.52881H136.933Z" fill="#181A21"/>
<path d="M153.762 16.4604C153.842 17.1385 154.017 17.6204 154.286 17.9059C154.761 18.4146 155.64 18.6689 156.922 18.6689C157.675 18.6689 158.271 18.5573 158.71 18.3343C159.159 18.1112 159.383 17.7766 159.383 17.3304C159.383 16.9021 159.203 16.5764 158.845 16.3533C158.486 16.1302 157.155 15.7465 154.851 15.2022C153.192 14.7917 152.023 14.2786 151.341 13.6629C150.66 13.0562 150.319 12.1817 150.319 11.0395C150.319 9.6921 150.848 8.53654 151.906 7.57283C152.973 6.6002 154.47 6.11388 156.397 6.11388C158.226 6.11388 159.714 6.47973 160.862 7.21144C162.018 7.93422 162.682 9.18794 162.852 10.9726H159.02C158.966 10.4818 158.827 10.0936 158.603 9.8081C158.181 9.29055 157.464 9.03178 156.451 9.03178C155.617 9.03178 155.021 9.16117 154.663 9.41994C154.313 9.67872 154.138 9.98211 154.138 10.3301C154.138 10.7674 154.326 11.0841 154.703 11.2804C155.08 11.4857 156.411 11.8381 158.697 12.3378C160.221 12.6948 161.364 13.2346 162.126 13.9574C162.879 14.6891 163.256 15.6037 163.256 16.7013C163.256 18.1469 162.713 19.3292 161.628 20.2483C160.553 21.1585 158.885 21.6135 156.626 21.6135C154.322 21.6135 152.619 21.1317 151.516 20.168C150.422 19.1954 149.875 17.9595 149.875 16.4604H153.762Z" fill="#181A21"/>
</svg>
