<svg width="68" height="15" viewBox="0 0 68 15" fill="none" xmlns="http://www.w3.org/2000/svg">
<path d="M3.83492 0V2.97133H5.97918V4.63293H3.83492V9.51998C3.83492 9.96307 3.93801 10.2889 4.14419 10.4974C4.36412 10.7059 4.72149 10.8102 5.21632 10.8102C5.50497 10.8102 5.75926 10.7841 5.97918 10.732V12.2958C5.6493 12.4131 5.20945 12.4718 4.65964 12.4718C3.80743 12.4718 3.13392 12.2372 2.63909 11.768C2.14426 11.2989 1.89684 10.6407 1.89684 9.79366V4.63293H0V2.97133H0.536065C1.04464 2.97133 1.42263 2.84101 1.67005 2.58036C1.93121 2.30669 2.06179 1.95482 2.06179 1.52476V0H3.83492Z" fill="#F1F1F1"/>
<path d="M10.754 6.70504H16.1765C16.149 6.0013 15.9016 5.42789 15.4342 4.9848C14.9669 4.52867 14.3071 4.30061 13.4549 4.30061C12.6852 4.30061 12.0529 4.5417 11.5581 5.02389C11.0633 5.49305 10.7952 6.05343 10.754 6.70504ZM16.4651 9.14857L18.1352 9.69592C17.8465 10.5691 17.3105 11.2858 16.527 11.8462C15.7435 12.3936 14.7951 12.6672 13.6817 12.6672C12.2935 12.6672 11.1114 12.2176 10.1355 11.3184C9.17329 10.4062 8.69221 9.18115 8.69221 7.64335C8.69221 6.20982 9.15954 5.02389 10.0942 4.08558C11.0289 3.14726 12.1423 2.67811 13.4343 2.67811C14.9325 2.67811 16.1009 3.12771 16.9394 4.02693C17.7778 4.91312 18.197 6.10556 18.197 7.60426C18.197 7.83884 18.1833 8.03432 18.1558 8.1907H10.6921C10.7059 9.02476 10.9945 9.70895 11.5581 10.2433C12.1354 10.7776 12.8433 11.0447 13.6817 11.0447C15.0975 11.0447 16.0253 10.4127 16.4651 9.14857Z" fill="#F1F1F1"/>
<path d="M23.2875 15H21.1638L22.9507 11.338L18.6828 2.97133H20.9095L24.0022 9.46134L26.9712 2.97133H29.0536L23.2875 15Z" fill="#F1F1F1"/>
<path d="M32.4921 12.374H30.5746V2.97133H32.4302V4.22241C32.7326 3.72719 33.1587 3.34926 33.7085 3.08862C34.2583 2.82798 34.8356 2.69765 35.4404 2.69765C36.0864 2.69765 36.6775 2.84752 37.2135 3.14726C37.7496 3.447 38.1482 3.8901 38.4094 4.47654C39.0966 3.29062 40.2031 2.69765 41.7289 2.69765C42.6773 2.69765 43.4814 3.00391 44.1411 3.61642C44.8147 4.22893 45.1514 5.11512 45.1514 6.27498V12.374H43.234V6.47046C43.234 5.81885 43.0553 5.29757 42.6979 4.9066C42.3543 4.51564 41.8319 4.32016 41.1309 4.32016C40.4574 4.32016 39.9076 4.54822 39.4815 5.00434C39.0554 5.44744 38.8424 6.00782 38.8424 6.68549V12.374H36.9043V6.47046C36.9043 5.81885 36.7256 5.29757 36.3682 4.9066C36.0246 4.51564 35.5023 4.32016 34.8013 4.32016C34.114 4.32016 33.5573 4.5417 33.1312 4.9848C32.7051 5.42789 32.4921 6.0013 32.4921 6.70504V12.374Z" fill="#F1F1F1"/>
<path d="M47.2906 9.8523C47.2906 9.04431 47.5655 8.39922 48.1153 7.91703C48.6652 7.42181 49.3937 7.11555 50.3008 6.99826L52.9812 6.62685C53.4897 6.56169 53.744 6.32711 53.744 5.92311C53.744 5.42789 53.5653 5.02389 53.208 4.71112C52.8506 4.39835 52.3145 4.24196 51.5998 4.24196C50.94 4.24196 50.4177 4.4179 50.0328 4.76976C49.6479 5.1086 49.4212 5.56473 49.3524 6.13814L47.4968 5.72763C47.593 4.82841 48.026 4.09861 48.7957 3.53823C49.5655 2.96481 50.4864 2.67811 51.5585 2.67811C52.9605 2.67811 53.9983 3.00391 54.6718 3.65552C55.3453 4.29409 55.6821 5.11512 55.6821 6.11859V10.8297C55.6821 11.3901 55.7233 11.9049 55.8058 12.374H53.909C53.8402 11.9831 53.8059 11.5595 53.8059 11.1034C53.531 11.5204 53.1255 11.8853 52.5894 12.1981C52.0671 12.5109 51.4073 12.6672 50.6101 12.6672C49.6342 12.6672 48.837 12.3936 48.2184 11.8462C47.5999 11.2858 47.2906 10.6212 47.2906 9.8523ZM50.8781 11.1229C51.7441 11.1229 52.4382 10.9014 52.9605 10.4583C53.4829 10.0152 53.744 9.31147 53.744 8.34709V7.91703L50.7132 8.34709C50.2733 8.41225 49.9228 8.56212 49.6617 8.7967C49.4005 9.03128 49.27 9.35056 49.27 9.75456C49.27 10.1195 49.4143 10.4387 49.7029 10.7124C50.0053 10.9861 50.3971 11.1229 50.8781 11.1229Z" fill="#F1F1F1"/>
<path d="M58.289 12.374L61.9796 7.58471L58.4127 2.97133H60.7631L63.196 6.27498L65.5877 2.97133H67.8763L64.3506 7.58471C64.5431 7.83232 65.1479 8.62728 66.165 9.96959C67.1822 11.3119 67.7938 12.1134 68 12.374H65.6702L63.1136 8.91399L60.5982 12.374H58.289Z" fill="#F1F1F1"/>
</svg>
