<svg width="20" height="28" viewBox="0 0 20 28" fill="none" xmlns="http://www.w3.org/2000/svg">
<path d="M11.0588 18.8974C11.6855 18.2619 11.6854 17.2409 11.0586 16.6055L4.58084 10.0395L11.0606 3.4686C11.6864 2.83394 11.6868 1.81437 11.0614 1.17925C10.4229 0.530792 9.37715 0.530412 8.73814 1.17841L0.692406 9.33737C0.308445 9.72673 0.308445 10.3523 0.692405 10.7417L8.73494 18.8974C9.37402 19.5454 10.4197 19.5454 11.0588 18.8974ZM8.94098 9.09947C8.31439 9.73487 8.31439 10.7557 8.94098 11.3911L15.4192 17.9605L8.94097 24.5298C8.31439 25.1652 8.31439 26.1861 8.94098 26.8215C9.58014 27.4697 10.626 27.4696 11.2651 26.8213L19.3079 18.6625C19.6917 18.2732 19.6917 17.6478 19.3079 17.2585L11.2651 9.09967C10.626 8.4514 9.58014 8.45131 8.94098 9.09947Z" fill="#848589"/>
</svg>
